<svg xmlns="http://www.w3.org/2000/svg" width="546.802" height="546.427" viewBox="0 0 546.802 546.427">
  <g id="Prismatic-MultiPoint-Star_3_" data-name="Prismatic-MultiPoint-Star (3)" transform="matrix(0, 1, -1, 0, 582.101, -35.275)">
    <g id="Group_52" data-name="Group 52" transform="translate(396.492 423.406)">
      <path id="Path_32" data-name="Path 32" d="M1170.581,1304.833l-5.653-53.787,39.414,15.13,26.875,82.712Z" transform="translate(-1162.112 -1247.376)" fill="#eff3fd"/>
      <path id="Path_33" data-name="Path 33" d="M1161.821,1247l34.656,13.3,24.22,74.541-53.747-39.05L1161.821,1247m-5.632-7.34.825,7.845,5.129,48.795.225,2.14,1.741,1.265,53.747,39.05,12.036,8.744-4.6-14.149-24.22-74.541-.713-2.193-2.152-.826-34.656-13.3-7.364-2.827Z" transform="translate(-1156.189 -1239.657)" fill="#eff3fd"/>
    </g>
    <g id="Group_53" data-name="Group 53" transform="translate(48.317 224.733)">
      <path id="Path_34" data-name="Path 34" d="M98.83,630.645h74.95l36.189,40.192-40.78,10.927Z" transform="translate(-91.391 -628.228)" fill="#eff3fd"/>
      <path id="Path_35" data-name="Path 35" d="M157.059,627.978l32.83,36.461-35.857,9.608L90.624,627.978h66.435m2.152-4.834H75.747l12.036,8.744,63.409,46.069,1.865,1.355,2.227-.6,35.857-9.608,7.619-2.042-5.278-5.862-32.83-36.461-1.44-1.6Z" transform="translate(-75.747 -623.144)" fill="#eff3fd"/>
    </g>
    <g id="Group_54" data-name="Group 54" transform="translate(147.908 427.826)">
      <path id="Path_36" data-name="Path 36" d="M422.222,1287.2l49.408-22-2.21,42.16-70.359,51.119Z" transform="translate(-394.464 -1261.392)" fill="#eff3fd"/>
      <path id="Path_37" data-name="Path 37" d="M459.341,1261l-1.943,37.07-63.408,46.069,20.53-63.183L459.341,1261m5.24-7.624-7.206,3.208-44.822,19.956-1.966.875-.665,2.047-20.53,63.183-4.6,14.149,12.036-8.744,63.409-46.069,1.865-1.355.121-2.3,1.943-37.07.413-7.877Z" transform="translate(-384.795 -1253.374)" fill="#eff3fd"/>
    </g>
    <g id="Group_55" data-name="Group 55" transform="translate(279.521 35.299)">
      <path id="Path_38" data-name="Path 38" d="M801.45,142.281l26.875-82.712,23.161,71.281-27.042,46.838Z" transform="translate(-798.796 -51.748)" fill="#eff3fd"/>
      <path id="Path_39" data-name="Path 39" d="M822.742,50.941l20.53,63.184-24.532,42.49-20.218-31.133,24.22-74.541m0-15.642-4.6,14.149-24.22,74.541-.712,2.193,1.256,1.934,20.218,31.133,4.3,6.615,3.944-6.831,24.532-42.49,1.076-1.864-.665-2.047-20.53-63.184-4.6-14.149Z" transform="translate(-793.212 -35.299)" fill="#eff3fd"/>
    </g>
    <g id="Group_56" data-name="Group 56" transform="translate(444.449 224.733)">
      <path id="Path_40" data-name="Path 40" d="M1318.539,663.454l26.569-32.81h86.968L1371.442,674.7Z" transform="translate(-1314.179 -628.228)" fill="#eff3fd"/>
      <path id="Path_41" data-name="Path 41" d="M1415.469,627.978l-53.747,39.05-47.991-10.2,23.361-28.849h78.377m14.877-4.834h-95.56l-1.451,1.792-23.361,28.849-4.964,6.13,7.716,1.64,47.991,10.2,2.105.447,1.741-1.265,53.747-39.05,12.036-8.744Z" transform="translate(-1305.01 -623.145)" fill="#eff3fd"/>
    </g>
    <g id="Group_57" data-name="Group 57" transform="translate(233.094 44.64)">
      <path id="Path_42" data-name="Path 42" d="M656.818,174.58l4.551-86.849,47.366,72.938L693.487,207.6Z" transform="translate(-654.344 -80.176)" fill="#eff3fd"/>
      <path id="Path_43" data-name="Path 43" d="M658.19,79.4l42.687,65.733-13.742,42.293-33.047-29.756,4.1-78.27m-4.049-15.109-.779,14.856-4.1,78.27-.121,2.3,1.713,1.543L683.9,191.015,689.433,196l2.3-7.079,13.742-42.293.712-2.193-1.256-1.934L662.244,76.764l-8.1-12.477Z" transform="translate(-649.14 -64.287)" fill="#eff3fd"/>
    </g>
    <g id="Group_58" data-name="Group 58" transform="translate(210.804 438.096)">
      <path id="Path_44" data-name="Path 44" d="M593.219,1327.1l39.92-29,10.259,48.265-54.731,67.587Z" transform="translate(-585.865 -1293.958)" fill="#eff3fd"/>
      <path id="Path_45" data-name="Path 45" d="M625.654,1293.53l9.246,43.5-49.324,60.911,4.1-78.27,35.977-26.139m3.181-8.286-6.022,4.375-35.977,26.139-1.865,1.355-.121,2.3-4.1,78.27-.779,14.856,9.362-11.562,49.324-60.91,1.451-1.792-.479-2.255-9.246-43.5-1.548-7.281Z" transform="translate(-579.97 -1285.245)" fill="#eff3fd"/>
    </g>
    <g id="Group_59" data-name="Group 59" transform="translate(424.618 160.137)">
      <path id="Path_46" data-name="Path 46" d="M1255.02,503.5l20.07-45.078,84.005-22.509L1304.364,503.5Z" transform="translate(-1251.298 -431.651)" fill="#eff3fd"/>
      <path id="Path_47" data-name="Path 47" d="M1344.708,431.211l-49.324,60.911h-44.47L1269,451.5l75.707-20.285m13.119-8.52-14.37,3.85-75.707,20.286-2.227.6-.938,2.106L1246.5,490.156l-3.027,6.8h54.219l1.451-1.792,49.324-60.911,9.362-11.561Z" transform="translate(-1243.47 -422.692)" fill="#eff3fd"/>
    </g>
    <g id="Group_60" data-name="Group 60" transform="translate(35.275 270.37)">
      <path id="Path_48" data-name="Path 48" d="M59.512,795.443l84.005-22.509,39.92,29L140.7,826.61Z" transform="translate(-51.701 -770.301)" fill="#eff3fd"/>
      <path id="Path_49" data-name="Path 49" d="M126.6,770.029l35.977,26.139L124.067,818.4,50.9,790.315,126.6,770.029m.976-5.266-2.227.6L49.645,785.646l-14.37,3.85,13.889,5.331,73.171,28.088,2.152.826,2-1.153L165,800.354l6.446-3.722-6.022-4.375-35.977-26.139-1.865-1.355Z" transform="translate(-35.275 -764.763)" fill="#eff3fd"/>
    </g>
    <g id="Group_61" data-name="Group 61" transform="translate(416.14 396.17)">
      <path id="Path_50" data-name="Path 50" d="M1243.111,1210.735l-15.249-46.929,49.074,5.158L1324.3,1241.9Z" transform="translate(-1224.414 -1161.014)" fill="#eff3fd"/>
      <path id="Path_51" data-name="Path 51" d="M1224.059,1160.726l44.226,4.648,42.687,65.733-73.172-28.088-13.742-42.293m-6.9-5.585,2.3,7.079,13.742,42.293.713,2.193,2.152.826,73.172,28.088,13.889,5.331-8.1-12.477-42.687-65.733-1.256-1.934-2.293-.241-44.226-4.648-7.4-.778Z" transform="translate(-1217.162 -1155.14)" fill="#eff3fd"/>
    </g>
    <g id="Group_62" data-name="Group 62" transform="translate(115.562 260.593)">
      <path id="Path_52" data-name="Path 52" d="M301.549,754.158l42.182-11.3,24.206,26.884L342.9,784.2Z" transform="translate(-296.029 -740.138)" fill="#eff3fd"/>
      <path id="Path_53" data-name="Path 53" d="M331.317,739.858l21.218,23.565-21.1,12.181L295.46,749.465l35.857-9.608m1.61-5.436-2.861.767L294.209,744.8l-9.789,2.623,8.2,5.957L328.6,779.515l2.54,1.845,2.719-1.57,21.1-12.181,5.169-2.985-3.994-4.436-21.218-23.565-1.982-2.2Z" transform="translate(-284.42 -734.422)" fill="#eff3fd"/>
    </g>
    <g id="Group_63" data-name="Group 63" transform="translate(215.154 415.709)">
      <path id="Path_54" data-name="Path 54" d="M604.067,1241.1l33.048-14.714,6.012,28.285-41.346,30.039Z" transform="translate(-599.103 -1222.969)" fill="#eff3fd"/>
      <path id="Path_55" data-name="Path 55" d="M629.738,1222.616l5.065,23.83-35.977,26.139,1.943-37.071,28.969-12.9m3.487-6.844-5.453,2.428L598.8,1231.1l-2.706,1.2-.155,2.958L594,1272.331l-.53,10.12,8.2-5.957,35.977-26.139,2.54-1.845-.653-3.07-5.065-23.83-1.241-5.839Z" transform="translate(-593.469 -1215.772)" fill="#eff3fd"/>
    </g>
    <g id="Group_64" data-name="Group 64" transform="translate(393.378 393.777)">
      <path id="Path_56" data-name="Path 56" d="M1158.735,1192.121l-3.781-35.978,28.757,3.022,15.793,48.6Z" transform="translate(-1152.238 -1153.428)" fill="#eff3fd"/>
      <path id="Path_57" data-name="Path 57" d="M1151.957,1153.148l24.229,2.546,13.742,42.293-34.656-13.3-3.315-31.536m-5.431-5.431.624,5.936,3.315,31.536.31,2.946,2.765,1.062,34.656,13.3,9.461,3.632-3.132-9.638-13.742-42.293-.97-2.985-3.122-.328-24.229-2.546-5.937-.624Z" transform="translate(-1146.526 -1147.716)" fill="#eff3fd"/>
    </g>
    <g id="Group_65" data-name="Group 65" transform="translate(415.309 224.733)">
      <path id="Path_58" data-name="Path 58" d="M1225.2,657.061l11.762-26.416h51.106l-27.482,33.938Z" transform="translate(-1221.778 -628.228)" fill="#eff3fd"/>
      <path id="Path_59" data-name="Path 59" d="M1275.8,627.978l-23.361,28.849-31.017-6.593,9.909-22.256h44.47m10.134-4.834H1228.2l-1.277,2.868-9.909,22.256-2.428,5.453,5.839,1.241,31.017,6.593,2.9.616,1.864-2.3,23.361-28.849,6.378-7.876Z" transform="translate(-1214.582 -623.145)" fill="#eff3fd"/>
    </g>
    <g id="Group_66" data-name="Group 66" transform="translate(265.522 114.351)">
      <path id="Path_60" data-name="Path 60" d="M758.407,346.486l15.793-48.6,23.784,36.624L779.9,365.835Z" transform="translate(-755.624 -292.315)" fill="#eff3fd"/>
      <path id="Path_61" data-name="Path 61" d="M769.079,291.741,789.3,322.874l-15.855,27.462-18.1-16.3,13.742-42.293m-1.465-11.132-3.132,9.638L750.74,332.54l-.97,2.985,2.333,2.1,18.1,16.3,4.436,3.994,2.985-5.169,15.855-27.462,1.481-2.565-1.613-2.484-20.218-31.133-5.52-8.5Z" transform="translate(-749.77 -280.609)" fill="#eff3fd"/>
    </g>
    <g id="Group_67" data-name="Group 67" transform="translate(171.975 72.028)">
      <path id="Path_62" data-name="Path 62" d="M489.695,255.363,471.613,170.3l64.63,58.193-2.583,49.276Z" transform="translate(-467.702 -163.522)" fill="#eff3fd"/>
      <path id="Path_63" data-name="Path 63" d="M467.3,162.823l58.246,52.445-2.327,44.409-39.623-20.189-16.3-76.664m-7.821-13.547,3.093,14.552,16.3,76.665.479,2.255,2.054,1.047,39.623,20.189,6.632,3.379.39-7.433,2.327-44.409.121-2.3-1.713-1.543-58.246-52.445-11.056-9.955Z" transform="translate(-459.478 -149.276)" fill="#eff3fd"/>
    </g>
    <g id="Group_68" data-name="Group 68" transform="translate(40.89 318.671)">
      <path id="Path_64" data-name="Path 64" d="M76.44,966.415l75.317-43.484,46.067,17.683-34.891,34.892Z" transform="translate(-68.789 -920.261)" fill="#eff3fd"/>
      <path id="Path_65" data-name="Path 65" d="M135.877,919.986l41.516,15.936-31.445,31.445L68,959.175l67.877-39.189m-.42-5.339-2,1.153L65.583,954.989,52.7,962.427l14.8,1.555,77.948,8.193,2.293.241,1.63-1.63,31.445-31.445,5.263-5.263-6.949-2.667-41.516-15.936-2.152-.826Z" transform="translate(-52.699 -914.647)" fill="#eff3fd"/>
    </g>
    <g id="Group_69" data-name="Group 69" transform="translate(260.526 446.494)">
      <path id="Path_66" data-name="Path 66" d="M742.347,1363.347,773.4,1325l22.4,43.966-35.373,79.45Z" transform="translate(-739.743 -1320.586)" fill="#eff3fd"/>
      <path id="Path_67" data-name="Path 67" d="M767.46,1320.13l20.189,39.623-31.879,71.6-16.3-76.665,27.986-34.559m.928-8.826-4.684,5.785-27.986,34.559-1.451,1.792.479,2.255,16.3,76.664,3.093,14.552,6.051-13.591,31.879-71.6.938-2.106-1.047-2.054-20.189-39.623-3.379-6.632Z" transform="translate(-734.267 -1311.304)" fill="#eff3fd"/>
    </g>
    <g id="Group_70" data-name="Group 70" transform="translate(401.256 105.716)">
      <path id="Path_68" data-name="Path 68" d="M1187.907,315.336l75.317-43.484-35.373,79.45-47.663,12.771Z" transform="translate(-1177.218 -266.039)" fill="#eff3fd"/>
      <path id="Path_69" data-name="Path 69" d="M1251.745,265.44l-31.879,71.6-42.954,11.51,6.957-43.922,67.877-39.189m10.467-11.625-12.884,7.438-67.877,39.189-2,1.153-.361,2.277-6.957,43.922-1.164,7.352,7.19-1.926,42.955-11.51,2.227-.6.938-2.106,31.879-71.6,6.051-13.591Z" transform="translate(-1170.973 -253.815)" fill="#eff3fd"/>
    </g>
    <g id="Group_71" data-name="Group 71" transform="translate(434.936 357.017)">
      <path id="Path_70" data-name="Path 70" d="M1314.942,1090.712l-26.875-41.384,48.737-7.719,64.63,58.193Z" transform="translate(-1284.014 -1039.042)" fill="#eff3fd"/>
      <path id="Path_71" data-name="Path 71" d="M1327.517,1038.776l58.246,52.445-77.948-8.193-24.22-37.3,43.922-6.957m1.521-5.135-2.277.361-43.922,6.957-7.352,1.164,4.054,6.243,24.22,37.3,1.256,1.934,2.293.241,77.948,8.193,14.8,1.555L1389,1087.629l-58.246-52.445-1.713-1.543Z" transform="translate(-1275.487 -1033.641)" fill="#eff3fd"/>
    </g>
    <g id="Group_72" data-name="Group 72" transform="translate(112.874 296.019)">
      <path id="Path_72" data-name="Path 72" d="M293.445,878.839,337.7,853.286,365.112,873.2l-23.955,23.955Z" transform="translate(-287.848 -850.408)" fill="#eff3fd"/>
      <path id="Path_73" data-name="Path 73" d="M325.782,850.111l23.849,17.327-20.844,20.844-41.516-15.936,38.512-22.235m.3-5.756-2.719,1.569L284.854,868.16l-8.777,5.067,9.461,3.632L327.054,892.8l2.931,1.125,2.22-2.22,20.844-20.844,4-4-4.579-3.327L328.624,846.2l-2.54-1.845Z" transform="translate(-276.077 -844.356)" fill="#eff3fd"/>
    </g>
    <g id="Group_73" data-name="Group 73" transform="translate(230.723 127.646)">
      <path id="Path_74" data-name="Path 74" d="M649.527,389l2.675-51.036,37.979,34.2-10.469,32.22Z" transform="translate(-647.031 -332.776)" fill="#eff3fd"/>
      <path id="Path_75" data-name="Path 75" d="M649.1,332.241,682.149,362l-9.109,28.036L646.774,376.65l2.327-44.409m-4.3-10.373-.53,10.12L641.947,376.4l-.164,3.135,2.8,1.425,26.265,13.383,5.043,2.569,1.749-5.383,9.109-28.036.97-2.985-2.333-2.1-33.047-29.756-7.531-6.781Z" transform="translate(-641.783 -321.868)" fill="#eff3fd"/>
    </g>
    <g id="Group_74" data-name="Group 74" transform="translate(251.107 421.818)">
      <path id="Path_76" data-name="Path 76" d="M713.387,1265.872l27.408-19.913,15.38,30.185-32.162,39.717Z" transform="translate(-710.697 -1242.34)" fill="#eff3fd"/>
      <path id="Path_77" data-name="Path 77" d="M734.268,1241.967l13.383,26.265-27.986,34.559-9.246-43.5,23.848-17.327m1.737-7.237-4.579,3.327-23.848,17.327-2.54,1.845.653,3.071,9.246,43.5,2.107,9.913,6.378-7.876,27.986-34.559,1.975-2.439-1.425-2.8-13.383-26.265-2.57-5.043Z" transform="translate(-705.038 -1234.73)" fill="#eff3fd"/>
    </g>
    <g id="Group_75" data-name="Group 75" transform="translate(396.923 181.65)">
      <path id="Path_78" data-name="Path 78" d="M1166.311,547.453l5.3-33.461,49.365-13.227-20.787,46.688Z" transform="translate(-1163.481 -497.119)" fill="#eff3fd"/>
      <path id="Path_79" data-name="Path 79" d="M1210.755,496.742l-18.087,40.625h-29.478l4.611-29.115,42.954-11.51m8.538-7.292-9.789,2.623-42.954,11.51-3.032.813-.491,3.1-4.611,29.115-.885,5.59h38.277l1.277-2.868,18.087-40.625,4.122-9.258Z" transform="translate(-1157.529 -489.45)" fill="#eff3fd"/>
    </g>
    <g id="Group_76" data-name="Group 76" transform="translate(407.582 363.843)">
      <path id="Path_80" data-name="Path 80" d="M1210.919,1100.513l-10.469-32.22,33.461-5.3,27.834,42.861Z" transform="translate(-1197.278 -1060.361)" fill="#eff3fd"/>
      <path id="Path_81" data-name="Path 81" d="M1226.066,1060.09l24.22,37.3-44.226-4.648-9.109-28.036,29.115-4.611m2.344-5.265-3.1.491-29.115,4.612-5.59.885,1.749,5.383,9.109,28.036.97,2.986,3.122.328,44.226,4.648,10.079,1.059-5.52-8.5-24.22-37.3-1.71-2.633Z" transform="translate(-1190.605 -1054.824)" fill="#eff3fd"/>
    </g>
    <g id="Group_77" data-name="Group 77" transform="translate(153.716 283.45)">
      <path id="Path_82" data-name="Path 82" d="M416.569,829.906l26.016-15.02,18.128,20.133L445.1,850.633Z" transform="translate(-412.137 -811.814)" fill="#eff3fd"/>
      <path id="Path_83" data-name="Path 83" d="M432.778,811.5l15.284,16.974L435.529,841,411.68,823.677l21.1-12.181m.973-6.143-3.39,1.957-21.1,12.181-6.446,3.722,6.022,4.375,23.849,17.327,3.34,2.427,2.919-2.919,12.534-12.534,3.244-3.244-3.069-3.409L436.37,808.262l-2.619-2.909Z" transform="translate(-402.817 -805.353)" fill="#eff3fd"/>
    </g>
    <g id="Group_78" data-name="Group 78" transform="translate(391.134 368.3)">
      <path id="Path_84" data-name="Path 84" d="M1150.6,1107.462l-2.832-26.944,21.811-3.455,10.9,33.538Z" transform="translate(-1145.125 -1074.354)" fill="#eff3fd"/>
      <path id="Path_85" data-name="Path 85" d="M1162.359,1074.074l9.109,28.036-24.229-2.546-2.388-22.716,17.507-2.773m3.322-5.42-4.078.646-17.507,2.773-4.531.718.479,4.562,2.388,22.716.409,3.893,3.893.409,24.228,2.547,7.4.778-2.3-7.079-9.109-28.036-1.276-3.926Z" transform="translate(-1139.565 -1068.654)" fill="#eff3fd"/>
    </g>
    <g id="Group_79" data-name="Group 79" transform="translate(394.318 224.733)">
      <path id="Path_86" data-name="Path 86" d="M1157.966,652.456l3.455-21.811h35.264l-12.219,27.444Z" transform="translate(-1155.22 -628.228)" fill="#eff3fd"/>
      <path id="Path_87" data-name="Path 87" d="M1187.188,627.978l-9.909,22.256-22.342-4.749,2.773-17.507h29.478m7.443-4.834h-41.05l-.646,4.078-2.773,17.507-.717,4.531,4.487.954,22.342,4.749,3.829.814,1.592-3.576,9.909-22.256,3.027-6.8Z" transform="translate(-1149.446 -623.145)" fill="#eff3fd"/>
    </g>
    <g id="Group_80" data-name="Group 80" transform="translate(245.881 406.98)">
      <path id="Path_88" data-name="Path 88" d="M697.419,1209.453l24.75-11.02,10.025,19.676-28.529,20.728Z" transform="translate(-694.648 -1195.293)" fill="#eff3fd"/>
      <path id="Path_89" data-name="Path 89" d="M715.229,1194.968l8.047,15.793-23.848,17.327-5.065-23.83,20.867-9.29m2.224-6.282-4.191,1.866-20.867,9.291-3.576,1.592.814,3.829,5.065,23.829,1.548,7.281,6.022-4.375,23.848-17.327,3.34-2.427-1.874-3.678-8.047-15.793-2.083-4.087Z" transform="translate(-688.82 -1188.687)" fill="#eff3fd"/>
    </g>
    <g id="Group_81" data-name="Group 81" transform="translate(256.107 159.203)">
      <path id="Path_90" data-name="Path 90" d="M729.665,466.633l10.9-33.538,22.325,20.1-13.546,23.462Z" transform="translate(-726.729 -428.808)" fill="#eff3fd"/>
      <path id="Path_91" data-name="Path 91" d="M735.535,428.366l18.1,16.3-11.421,19.781L726.426,456.4l9.109-28.036m-2.3-8.573-2.3,7.079-9.109,28.036-1.276,3.926,3.679,1.874,15.793,8.047,4.087,2.082,2.294-3.973,11.421-19.781,1.957-3.39-2.909-2.619-18.1-16.3-5.531-4.981Z" transform="translate(-720.553 -419.793)" fill="#eff3fd"/>
    </g>
    <g id="Group_82" data-name="Group 82" transform="translate(365.943 65.18)">
      <path id="Path_92" data-name="Path 92" d="M1069.224,211.145l61.5-61.5-13.605,85.9-42.733,24.672Z" transform="translate(-1066.7 -142.68)" fill="#eff3fd"/>
      <path id="Path_93" data-name="Path 93" d="M1121.86,141.961,1109.6,219.374l-38.512,22.235-4.648-44.226,55.421-55.421m7.1-13.938-10.52,10.52-55.421,55.421-1.63,1.63.241,2.293,4.648,44.226.778,7.4,6.446-3.722,38.512-22.235,2-1.153.361-2.277,12.261-77.412,2.327-14.694Z" transform="translate(-1061.391 -128.024)" fill="#eff3fd"/>
    </g>
    <g id="Group_83" data-name="Group 83" transform="translate(115.196 115.596)">
      <path id="Path_94" data-name="Path 94" d="M339.929,379.126l-39.483-77.49,77.489,39.483,10.259,48.266Z" transform="translate(-294.916 -296.106)" fill="#eff3fd"/>
      <path id="Path_95" data-name="Path 95" d="M294.345,295.535l69.835,35.583,9.246,43.5-43.5-9.246-35.583-69.835m-11.061-11.061,6.754,13.255,35.583,69.835,1.047,2.054,2.255.479,43.5,9.246,7.281,1.548-1.547-7.281-9.246-43.5-.479-2.255-2.054-1.047L296.54,291.228l-13.255-6.754Z" transform="translate(-283.284 -284.474)" fill="#eff3fd"/>
    </g>
    <g id="Group_84" data-name="Group 84" transform="translate(64.78 366.342)">
      <path id="Path_96" data-name="Path 96" d="M209.955,1070.413l49.074,5.158L234.357,1118.3l-85.9,13.6Z" transform="translate(-141.49 -1067.889)" fill="#eff3fd"/>
      <path id="Path_97" data-name="Path 97" d="M196.192,1067.629l44.226,4.648-22.235,38.512-77.412,12.261,55.421-55.421m-1.788-5.048-1.63,1.63-55.421,55.421-10.52,10.519,14.694-2.327,77.412-12.261,2.277-.361,1.153-2,22.235-38.512,3.722-6.446-7.4-.778-44.226-4.648-2.293-.241Z" transform="translate(-126.834 -1062.581)" fill="#eff3fd"/>
    </g>
    <g id="Group_85" data-name="Group 85" transform="translate(445.152 308.955)">
      <path id="Path_98" data-name="Path 98" d="M1320.793,912.874l45.078-20.07,77.49,39.483-85.9,13.6Z" transform="translate(-1316.41 -890.127)" fill="#eff3fd"/>
      <path id="Path_99" data-name="Path 99" d="M1356.583,889.851l69.835,35.582L1349,937.694l-33.047-29.756,40.625-18.087m.14-5.354-2.106.938-40.625,18.087-6.8,3.028,5.531,4.981,33.047,29.756,1.713,1.543,2.277-.361,77.412-12.261,14.694-2.327-13.255-6.754-69.835-35.583-2.054-1.047Z" transform="translate(-1307.192 -884.497)" fill="#eff3fd"/>
    </g>
    <g id="Group_86" data-name="Group 86" transform="translate(308.555 445.552)">
      <path id="Path_100" data-name="Path 100" d="M891.614,1367.061l20.07-45.078,33.018,36.669-13.605,85.9Z" transform="translate(-888.937 -1317.6)" fill="#eff3fd"/>
      <path id="Path_101" data-name="Path 101" d="M906.748,1317.148l29.756,33.047-12.261,77.412-35.583-69.835,18.088-40.625m-1.388-8.766-3.027,6.8-18.087,40.625-.938,2.106,1.047,2.054,35.583,69.835,6.754,13.255,2.327-14.694,12.261-77.412.361-2.277-1.543-1.713-29.756-33.047-4.981-5.531Z" transform="translate(-883.307 -1308.382)" fill="#eff3fd"/>
    </g>
    <g id="Group_87" data-name="Group 87" transform="translate(370.504 147.276)">
      <path id="Path_102" data-name="Path 102" d="M1083.513,422.693l44.259-25.553-7.995,50.477-32.723,8.768Z" transform="translate(-1080.945 -392.513)" fill="#eff3fd"/>
      <path id="Path_103" data-name="Path 103" d="M1119.192,392.036l-6.957,43.922-28.474,7.63-3.081-29.317,38.512-22.235m6.36-9.253-8.776,5.067-38.512,22.235-2.719,1.57.328,3.122,3.081,29.317.592,5.629,5.467-1.465,28.474-7.63,3.032-.812.491-3.1,6.957-43.922,1.585-10.009Z" transform="translate(-1075.545 -382.783)" fill="#eff3fd"/>
    </g>
    <g id="Group_88" data-name="Group 88" transform="translate(189.257 153.332)">
      <path id="Path_104" data-name="Path 104" d="M534.336,465.385,523.711,415.4l45.536,23.2-1.773,33.831Z" transform="translate(-520.293 -410.941)" fill="#eff3fd"/>
      <path id="Path_105" data-name="Path 105" d="M519.941,410.482l39.623,20.189-1.543,29.438-28.834-6.129-9.246-43.5m-6.835-8.908,2.107,9.913,9.246,43.5.653,3.071,3.07.653,28.834,6.129,5.536,1.177.3-5.652,1.543-29.438.164-3.135-2.8-1.425-39.623-20.189-9.03-4.6Z" transform="translate(-513.106 -401.574)" fill="#eff3fd"/>
    </g>
    <g id="Group_89" data-name="Group 89" transform="translate(287.987 424.971)">
      <path id="Path_106" data-name="Path 106" d="M828.377,1282.388l21.32-26.328,22.669,25.176-20.787,46.688Z" transform="translate(-825.511 -1252.339)" fill="#eff3fd"/>
      <path id="Path_107" data-name="Path 107" d="M843.767,1251.955l19.725,21.907L845.4,1314.487l-20.189-39.623,18.551-22.909m-.195-7.44-3.562,4.4-18.551,22.909-1.975,2.439,1.425,2.8,20.189,39.623,4.6,9.03,4.122-9.258,18.088-40.625,1.277-2.868-2.1-2.333-19.725-21.907-3.787-4.206Z" transform="translate(-819.484 -1244.515)" fill="#eff3fd"/>
    </g>
    <g id="Group_90" data-name="Group 90" transform="translate(123.554 334.308)">
      <path id="Path_108" data-name="Path 108" d="M325.643,1008.059l36.138-36.138,31.628,12.141L376.469,1013.4Z" transform="translate(-320.351 -969.102)" fill="#eff3fd"/>
      <path id="Path_109" data-name="Path 109" d="M351.25,968.811l27.52,10.564L364.031,1004.9l-44.226-4.648,31.445-31.445m-1.2-5.638-2.22,2.22-31.445,31.445L309.221,1004l10.079,1.059,44.226,4.648,3.122.328,1.57-2.719,14.739-25.529,2.83-4.9-5.284-2.028L352.982,964.3l-2.931-1.125Z" transform="translate(-309.221 -963.174)" fill="#eff3fd"/>
    </g>
    <g id="Group_91" data-name="Group 91" transform="translate(419.852 326.703)">
      <path id="Path_110" data-name="Path 110" d="M1239.754,962.185l30.949-13.779,37.979,34.2-50.477,7.995Z" transform="translate(-1236.186 -945.559)" fill="#eff3fd"/>
      <path id="Path_111" data-name="Path 111" d="M1262.747,945.266l33.047,29.756-43.922,6.957-16.055-24.723,26.93-11.99m.9-5.693-2.868,1.277-26.93,11.99-5.17,2.3,3.082,4.747,16.055,24.723,1.71,2.633,3.1-.491,43.922-6.957,10.01-1.585-7.531-6.781-33.047-29.756-2.333-2.1Z" transform="translate(-1228.681 -939.573)" fill="#eff3fd"/>
    </g>
    <g id="Group_92" data-name="Group 92" transform="translate(229.128 174.742)">
      <path id="Path_112" data-name="Path 112" d="M644.66,515.156l1.845-35.216,31.421,16.01-7.986,24.58Z" transform="translate(-642.138 -476.097)" fill="#eff3fd"/>
      <path id="Path_113" data-name="Path 113" d="M643.42,475.7l26.265,13.383L663.01,509.63l-21.132-4.492L643.42,475.7m-4.438-7.686-.39,7.433-1.543,29.438-.216,4.123,4.038.858L662,514.358l4.257.9,1.345-4.139,6.676-20.547,1.276-3.926-3.678-1.874-26.266-13.383-6.632-3.379Z" transform="translate(-636.834 -468.014)" fill="#eff3fd"/>
    </g>
    <g id="Group_93" data-name="Group 93" transform="translate(373.482 193.856)">
      <path id="Path_114" data-name="Path 114" d="M1095.616,572.391l-2.7-25.7,34.062-9.127-5.516,34.83Z" transform="translate(-1090.295 -534.263)" fill="#eff3fd"/>
      <path id="Path_115" data-name="Path 115" d="M1118.5,533.923l-4.611,29.116h-21.6l-2.258-21.486,28.474-7.63m5.939-6.6-7.19,1.926-28.474,7.63-3.988,1.068.432,4.106,2.258,21.486.455,4.329h30.085l.646-4.078,4.611-29.115,1.164-7.352Z" transform="translate(-1084.786 -527.328)" fill="#eff3fd"/>
    </g>
    <g id="Group_94" data-name="Group 94" transform="translate(156.902 312.764)">
      <path id="Path_116" data-name="Path 116" d="M426.173,931.087l24.936-24.936,20.909,15.191L459.1,943.725Z" transform="translate(-421.833 -902.983)" fill="#eff3fd"/>
      <path id="Path_117" data-name="Path 117" d="M442.229,902.657l17.478,12.7-10.8,18.71L421.385,923.5l20.844-20.844m-.5-6.337-2.919,2.919-20.844,20.844-5.263,5.263,6.949,2.667,27.52,10.564,3.854,1.479,2.064-3.575,10.8-18.71L466.07,914l-3.521-2.558-17.478-12.7-3.34-2.427Z" transform="translate(-412.704 -896.319)" fill="#eff3fd"/>
    </g>
    <g id="Group_95" data-name="Group 95" transform="translate(274.155 409.887)">
      <path id="Path_118" data-name="Path 118" d="M786.151,1222.936l20.909-15.191,17.293,19.206-22.192,27.406Z" transform="translate(-783.06 -1204.511)" fill="#eff3fd"/>
      <path id="Path_119" data-name="Path 119" d="M800.22,1204.177l14.456,16.055-18.551,22.909-13.383-26.265,17.478-12.7m.68-6.469-3.521,2.558-17.478,12.7-3.34,2.427,1.874,3.679,13.383,26.266,3.379,6.632,4.684-5.785,18.551-22.909,2.6-3.208L818.268,1217l-14.456-16.055-2.912-3.234Z" transform="translate(-776.56 -1197.708)" fill="#eff3fd"/>
    </g>
    <g id="Group_96" data-name="Group 96" transform="translate(401.31 338.29)">
      <path id="Path_120" data-name="Path 120" d="M1180.361,995.5l23.611-10.512,19.206,29.575-34.83,5.517Z" transform="translate(-1177.39 -981.941)" fill="#eff3fd"/>
      <path id="Path_121" data-name="Path 121" d="M1196.82,981.626l16.055,24.723-29.115,4.611-6.676-20.547,19.737-8.787m1.805-6.1-3.771,1.679L1175.117,986l-3.976,1.77,1.345,4.139,6.676,20.547,1.276,3.926,4.078-.646,29.115-4.612,7.352-1.164-4.054-6.243-16.055-24.723-2.249-3.462Z" transform="translate(-1171.141 -975.531)" fill="#eff3fd"/>
    </g>
    <g id="Group_97" data-name="Group 97" transform="translate(249.048 188.935)">
      <path id="Path_122" data-name="Path 122" d="M708.354,548.516l8.38-25.791,20.584,10.488-11.035,19.114Z" transform="translate(-705.226 -519.287)" fill="#eff3fd"/>
      <path id="Path_123" data-name="Path 123" d="M711.579,518.933l15.793,8.047-8.884,15.387L704.9,539.48l6.676-20.547m-2.848-6.876-1.749,5.383-6.676,20.547-1.659,5.106,5.251,1.116,13.585,2.888,3.435.73,1.756-3.041,8.884-15.387,2.547-4.411-4.539-2.313-15.793-8.047-5.043-2.569Z" transform="translate(-698.647 -512.057)" fill="#eff3fd"/>
    </g>
    <g id="Group_98" data-name="Group 98" transform="translate(389.39 346.573)">
      <path id="Path_124" data-name="Path 124" d="M1142.179,1018.929l16.744-7.455,8.38,25.791-22.817,3.614Z" transform="translate(-1139.592 -1008.174)" fill="#eff3fd"/>
      <path id="Path_125" data-name="Path 125" d="M1152.013,1007.834l6.676,20.547-17.507,2.773-1.857-17.671,12.688-5.649m2.938-6.6-4.9,2.183-12.688,5.649-3.208,1.428.367,3.493,1.857,17.671.532,5.066,5.031-.8,17.507-2.773,5.59-.885-1.749-5.383-6.676-20.547-1.659-5.106Z" transform="translate(-1134.151 -1001.234)" fill="#eff3fd"/>
    </g>
    <g id="Group_99" data-name="Group 99" transform="translate(179.008 299.548)">
      <path id="Path_126" data-name="Path 126" d="M492.814,882.535,509.149,866.2l14.768,16.4-9.164,15.873Z" transform="translate(-489.104 -862.69)" fill="#eff3fd"/>
      <path id="Path_127" data-name="Path 127" d="M501.254,862.328l11.889,13.2L506.2,887.56l-17.478-12.7,12.534-12.534m.184-7.02-3.6,3.6L485.3,871.443l-4,4,4.579,3.327,17.478,12.7,4.343,3.156,2.684-4.649,6.944-12.028,1.756-3.042-2.35-2.61-11.889-13.2-3.408-3.785Z" transform="translate(-481.301 -855.308)" fill="#eff3fd"/>
    </g>
    <g id="Group_100" data-name="Group 100" transform="translate(375.61 224.733)">
      <path id="Path_128" data-name="Path 128" d="M1101.638,648.873l-1.916-18.229h27.118l-3.614,22.817Z" transform="translate(-1097.037 -628.228)" fill="#eff3fd"/>
      <path id="Path_129" data-name="Path 129" d="M1118.364,627.978l-2.773,17.507-17.38-3.694-1.452-13.813h21.6m5.66-4.834h-32.632l.561,5.339L1093.4,642.3l.367,3.493,3.435.73,17.38,3.694,4.982,1.059.8-5.031,2.773-17.507.885-5.59Z" transform="translate(-1091.391 -623.145)" fill="#eff3fd"/>
    </g>
    <g id="Group_101" data-name="Group 101" transform="translate(265.67 400.191)">
      <path id="Path_130" data-name="Path 130" d="M760.5,1185.663l20.163-8.977,12.264,13.621-21.939,15.94Z" transform="translate(-757.19 -1173.763)" fill="#eff3fd"/>
      <path id="Path_131" data-name="Path 131" d="M773.081,1173.462l9.293,10.321-17.478,12.7-8.047-15.793,16.232-7.227m1.242-5.844-3.208,1.428-16.232,7.227-4.653,2.072,2.312,4.538,8.047,15.793,2.569,5.043,4.579-3.327,17.478-12.7,4.343-3.156-3.592-3.989-9.293-10.321-2.35-2.61Z" transform="translate(-750.229 -1167.618)" fill="#eff3fd"/>
    </g>
    <g id="Group_102" data-name="Group 102" transform="translate(324.318 41.29)">
      <path id="Path_132" data-name="Path 132" d="M940.389,142.538l37.475-64.908,9.091,86.492L957.1,193.974Z" transform="translate(-937.758 -69.979)" fill="#eff3fd"/>
      <path id="Path_133" data-name="Path 133" d="M970.7,69.19l8.193,77.948-26.249,26.249-15.161-46.662L970.7,69.19m3.252-15.3-7.438,12.884L933.3,124.308l-1.076,1.864.665,2.047,15.161,46.662,2.438,7.5,5.578-5.578,26.249-26.249,1.63-1.63-.241-2.293-8.193-77.948-1.555-14.8Z" transform="translate(-932.224 -53.89)" fill="#eff3fd"/>
    </g>
    <g id="Group_103" data-name="Group 103" transform="translate(452.245 263.441)">
      <path id="Path_134" data-name="Path 134" d="M1343.512,783.081l43.755-31.789,73.312,15.583-79.45,35.373Z" transform="translate(-1338.901 -748.704)" fill="#eff3fd"/>
      <path id="Path_135" data-name="Path 135" d="M1378.118,748.437l64.983,13.813-71.6,31.879-33.075-16.853,39.693-28.839m-1.1-5.176-1.741,1.265-39.693,28.839L1329.2,778l7.028,3.581,33.075,16.853,2.054,1.047,2.106-.938,71.6-31.879,13.591-6.051-14.552-3.093-64.983-13.813-2.105-.447Z" transform="translate(-1329.202 -743.261)" fill="#eff3fd"/>
    </g>
    <g id="Group_104" data-name="Group 104" transform="translate(356.617 442.154)">
      <path id="Path_136" data-name="Path 136" d="M1040.419,1352.8l6.6-41.7,43.755,31.79,7.834,74.539Z" transform="translate(-1037.852 -1306.824)" fill="#eff3fd"/>
      <path id="Path_137" data-name="Path 137" d="M1043.393,1306.384l39.693,28.839,6.944,66.071-52.445-58.245,5.807-36.664m-3.54-8.547-1.234,7.791-5.807,36.664-.361,2.277,1.543,1.713,52.445,58.246,9.954,11.056-1.555-14.8-6.944-66.071-.225-2.141-1.741-1.265-39.693-28.839-6.381-4.636Z" transform="translate(-1032.451 -1297.837)" fill="#eff3fd"/>
    </g>
    <g id="Group_105" data-name="Group 105" transform="translate(71.628 172.375)">
      <path id="Path_138" data-name="Path 138" d="M219.256,528.5,169.1,472.8l85.068,18.082L273.339,528.5Z" transform="translate(-162.331 -468.893)" fill="#eff3fd"/>
      <path id="Path_139" data-name="Path 139" d="M161.633,468.489l76.665,16.3L255.15,517.86H206.087l-44.454-49.371m-13.547-7.821,9.955,11.056,44.454,49.371,1.44,1.6h59.1l-3.581-7.028L242.6,482.59l-1.047-2.054-2.255-.479-76.664-16.3-14.552-3.093Z" transform="translate(-148.086 -460.668)" fill="#eff3fd"/>
    </g>
    <g id="Group_106" data-name="Group 106" transform="translate(105.316 402.736)">
      <path id="Path_140" data-name="Path 140" d="M314.146,1191.442l41.7-6.6-16.713,51.436-68.47,30.485Z" transform="translate(-264.849 -1181.833)" fill="#eff3fd"/>
      <path id="Path_141" data-name="Path 141" d="M340.1,1181.523l-15.161,46.662-60.692,27.021,39.189-67.877,36.664-5.807m7.035-6.008-7.791,1.234-36.664,5.807-2.277.361-1.153,2-39.189,67.877-7.438,12.884,13.591-6.051,60.692-27.021,1.966-.875.665-2.047,15.161-46.662,2.437-7.5Z" transform="translate(-252.625 -1175.515)" fill="#eff3fd"/>
    </g>
    <g id="Group_107" data-name="Group 107" transform="translate(169.68 398.075)">
      <path id="Path_142" data-name="Path 142" d="M481.992,1175.568l35.731-5.659-1.893,36.127L464.7,1228.8Z" transform="translate(-460.719 -1167.055)" fill="#eff3fd"/>
      <path id="Path_143" data-name="Path 143" d="M506.791,1166.76l-1.66,31.667-44.822,19.956,15.161-46.662,31.32-4.961m5.14-5.708-5.9.934-31.32,4.961-2.926.463-.915,2.817-15.161,46.662-3.355,10.326,9.918-4.416,44.822-19.956,2.706-1.2.155-2.958,1.66-31.667.312-5.961Z" transform="translate(-452.357 -1161.052)" fill="#eff3fd"/>
    </g>
    <g id="Group_108" data-name="Group 108" transform="translate(118.772 224.733)">
      <path id="Path_144" data-name="Path 144" d="M311.226,630.645H367.2l16.423,32.233-34.943,9.363Z" transform="translate(-305.797 -628.228)" fill="#eff3fd"/>
      <path id="Path_145" data-name="Path 145" d="M354.3,627.978l14.4,28.254-30.63,8.207-32.83-36.461H354.3m2.962-4.834H294.381l7.265,8.068,32.83,36.461,1.982,2.2,2.861-.767,30.63-8.207,5.766-1.545L373,654.038l-14.4-28.254-1.345-2.639Z" transform="translate(-294.381 -623.145)" fill="#eff3fd"/>
    </g>
    <g id="Group_109" data-name="Group 109" transform="translate(299.382 102.306)">
      <path id="Path_146" data-name="Path 146" d="M863.635,310.044l27.987-48.474,17.3,53.233-25.58,25.58Z" transform="translate(-860.801 -255.661)" fill="#eff3fd"/>
      <path id="Path_147" data-name="Path 147" d="M885.04,255.051,900.2,301.713l-22.423,22.423-17.271-26.594,24.532-42.49m1.242-11.819-5.428,9.4-24.532,42.49-1.481,2.565,1.613,2.484,17.271,26.594,3.251,5.006,4.221-4.221,22.423-22.423,2.094-2.095-.915-2.817-15.161-46.662-3.355-10.326Z" transform="translate(-854.841 -243.232)" fill="#eff3fd"/>
    </g>
    <g id="Group_110" data-name="Group 110" transform="translate(362.321 412.729)">
      <path id="Path_148" data-name="Path 148" d="M1058.28,1252.578l5.659-35.731,33.773,12.965,5.85,55.666Z" transform="translate(-1055.661 -1213.522)" fill="#eff3fd"/>
      <path id="Path_149" data-name="Path 149" d="M1060.351,1213.179l29.6,11.364,5.129,48.795-39.693-28.839,4.961-31.32m-3.84-6.652-.934,5.9-4.961,31.32-.463,2.926,2.4,1.741,39.693,28.839,8.783,6.382-1.135-10.8-5.129-48.795-.31-2.946-2.765-1.062-29.6-11.364-5.573-2.139Z" transform="translate(-1050.153 -1206.527)" fill="#eff3fd"/>
    </g>
    <g id="Group_111" data-name="Group 111" transform="translate(425.701 253.072)">
      <path id="Path_150" data-name="Path 150" d="M1258.488,747.489l22.766-28.114L1336,731.013l-45.283,32.9Z" transform="translate(-1254.731 -716.703)" fill="#eff3fd"/>
      <path id="Path_151" data-name="Path 151" d="M1274.3,716.428l47.991,10.2L1282.6,755.467l-28.254-14.4,19.956-24.644m-1.892-5.344-1.864,2.3-19.956,24.643-3.757,4.639,5.319,2.71,28.254,14.4,2.639,1.345,2.4-1.741,39.693-28.839,8.783-6.381L1323.3,721.9,1275.3,711.7l-2.9-.616Z" transform="translate(-1246.83 -711.084)" fill="#eff3fd"/>
    </g>
    <g id="Group_112" data-name="Group 112" transform="translate(283.05 147.367)">
      <path id="Path_152" data-name="Path 152" d="M813.7,429.986,832.5,397.414l20.485,31.544-19.157,19.157Z" transform="translate(-810.623 -392.79)" fill="#eff3fd"/>
      <path id="Path_153" data-name="Path 153" d="M826.161,392.313l17.271,26.594-16.151,16.151-16.974-15.284,15.855-27.462m-.242-9.248-3.944,6.831L806.12,417.358l-1.957,3.39,2.909,2.619,16.974,15.284,3.409,3.069,3.244-3.244,16.151-16.151,2.768-2.768-2.132-3.283L830.215,389.68l-4.3-6.615Z" transform="translate(-804.163 -383.065)" fill="#eff3fd"/>
    </g>
    <g id="Group_113" data-name="Group 113" transform="translate(217.214 394.718)">
      <path id="Path_154" data-name="Path 154" d="M609.961,1163.394l26.759-4.238,5.633,26.5-34.36,15.3Z" transform="translate(-605.373 -1156.41)" fill="#eff3fd"/>
      <path id="Path_155" data-name="Path 155" d="M629.322,1156.127l4.749,22.342-28.969,12.9,1.66-31.667,22.56-3.573m3.774-5.492-4.531.718-22.56,3.573-3.866.612-.2,3.909-1.66,31.667-.413,7.877,7.206-3.208,28.969-12.9,3.576-1.592-.814-3.829-4.749-22.342-.954-4.487Z" transform="translate(-599.863 -1150.635)" fill="#eff3fd"/>
    </g>
    <g id="Group_114" data-name="Group 114" transform="translate(153.589 252.139)">
      <path id="Path_156" data-name="Path 156" d="M416.184,726.74,452.514,717l12.3,24.139L441.351,754.69Z" transform="translate(-411.749 -714.164)" fill="#eff3fd"/>
      <path id="Path_157" data-name="Path 157" d="M441.922,713.871l10.37,20.352L432.51,745.643l-21.218-23.565,30.63-8.207m2.53-5.682-3.781,1.013-30.63,8.207-7.619,2.042,5.278,5.862,21.218,23.565,2.619,2.909,3.39-1.957,19.781-11.421,3.973-2.294-2.082-4.087-10.37-20.352-1.777-3.488Z" transform="translate(-402.422 -708.189)" fill="#eff3fd"/>
    </g>
    <g id="Group_115" data-name="Group 115" transform="translate(367.133 391.534)">
      <path id="Path_158" data-name="Path 158" d="M1073.443,1175.717l4.238-26.759,26.944,2.832,3.932,37.405Z" transform="translate(-1070.749 -1146.315)" fill="#eff3fd"/>
      <path id="Path_159" data-name="Path 159" d="M1074.044,1146.042l22.716,2.388,3.315,31.536-29.6-11.364,3.573-22.56m-4.057-5.287-.718,4.531-3.573,22.56-.612,3.866,3.654,1.4,29.6,11.364,7.364,2.827-.824-7.845-3.315-31.536-.409-3.893-3.893-.409-22.716-2.388-4.562-.479Z" transform="translate(-1065.084 -1140.755)" fill="#eff3fd"/>
    </g>
    <g id="Group_116" data-name="Group 116" transform="translate(406.58 246.281)">
      <path id="Path_160" data-name="Path 160" d="M1197.243,723.359l11.019-24.75,36.79,7.82-23.669,29.23Z" transform="translate(-1194.103 -695.838)" fill="#eff3fd"/>
      <path id="Path_161" data-name="Path 161" d="M1203.069,695.552l31.017,6.593-19.956,24.644-20.352-10.37,9.29-20.867m-2.824-5.542-1.592,3.576-9.291,20.867-1.866,4.19,4.087,2.083,20.352,10.37,3.488,1.777,2.463-3.042,19.956-24.643,4.964-6.13-7.716-1.64-31.017-6.593-3.829-.814Z" transform="translate(-1187.497 -690.01)" fill="#eff3fd"/>
    </g>
    <g id="Group_117" data-name="Group 117" transform="translate(370.521 370.921)">
      <path id="Path_162" data-name="Path 162" d="M1084.244,1110.686l3.452-21.8,21.8-3.452,2.966,28.217Z" transform="translate(-1081.459 -1082.649)" fill="#eff3fd"/>
      <path id="Path_163" data-name="Path 163" d="M1101.5,1082.361l2.388,22.716-22.716-2.388,2.78-17.549,17.549-2.78m4.275-5.571-5.031.8-17.549,2.78-3.469.549-.549,3.469-2.78,17.549-.8,5.031,5.066.532,22.716,2.388,5.937.624-.624-5.936-2.388-22.716-.532-5.066Z" transform="translate(-1075.6 -1076.79)" fill="#eff3fd"/>
    </g>
    <g id="Group_118" data-name="Group 118" transform="translate(271.04 176.491)">
      <path id="Path_164" data-name="Path 164" d="M777.34,509.782l14.186-24.572L812.611,504.2,797,519.8Z" transform="translate(-773.973 -481.417)" fill="#eff3fd"/>
      <path id="Path_165" data-name="Path 165" d="M785.046,481.026l16.974,15.284-12.564,12.564-15.831-8.066,11.421-19.781m-1.2-7.586-2.985,5.17L769.44,498.39l-2.547,4.411,4.539,2.313,15.831,8.066,3.129,1.594,2.483-2.483,12.564-12.564,3.6-3.6-3.785-3.408-16.974-15.284-4.436-3.994Z" transform="translate(-766.893 -473.44)" fill="#eff3fd"/>
    </g>
    <g id="Group_119" data-name="Group 119" transform="translate(176.091 271.44)">
      <path id="Path_166" data-name="Path 166" d="M484.02,792.716l24.572-14.187,10.02,19.665L503.006,813.8Z" transform="translate(-480.227 -775.163)" fill="#eff3fd"/>
      <path id="Path_167" data-name="Path 167" d="M499.617,774.816l8.066,15.831L495.12,803.211l-15.284-16.974,19.781-11.421m1.994-6.733L497.2,770.63,477.419,782.05l-5.17,2.985,3.994,4.436,15.284,16.974,3.408,3.785,3.6-3.6L511.1,794.065l2.483-2.483-1.594-3.129-8.066-15.831-2.312-4.539Z" transform="translate(-472.25 -768.083)" fill="#eff3fd"/>
    </g>
    <g id="Group_120" data-name="Group 120" transform="translate(240.887 392.107)">
      <path id="Path_168" data-name="Path 168" d="M682.3,1154.245l21.8-3.453,10.02,19.665L688.2,1182Z" transform="translate(-679.408 -1148.131)" fill="#eff3fd"/>
      <path id="Path_169" data-name="Path 169" d="M696.659,1147.856l8.066,15.831-20.867,9.291-4.749-22.342,17.549-2.779m2.713-5.324-3.469.549-17.549,2.779-5.031.8,1.059,4.982,4.749,22.342,1.241,5.839,5.453-2.428,20.867-9.291,4.653-2.072-2.312-4.539-8.066-15.831-1.594-3.129Z" transform="translate(-673.322 -1142.532)" fill="#eff3fd"/>
    </g>
    <g id="Group_121" data-name="Group 121" transform="translate(391.707 241.287)">
      <path id="Path_170" data-name="Path 170" d="M1149.6,705.29l3.453-21.8,27.752,5.9-11.54,25.92Z" transform="translate(-1146.941 -680.598)" fill="#eff3fd"/>
      <path id="Path_171" data-name="Path 171" d="M1149.445,680.3l22.342,4.749-9.29,20.867-15.831-8.067,2.779-17.549m-3.977-5.787-.8,5.031-2.78,17.549-.549,3.469,3.129,1.594,15.831,8.067,4.539,2.313,2.072-4.653,9.29-20.867,2.428-5.453-5.839-1.241-22.342-4.749-4.982-1.059Z" transform="translate(-1141.342 -674.512)" fill="#eff3fd"/>
    </g>
    <g id="Group_122" data-name="Group 122" transform="translate(339.229 123.954)">
      <path id="Path_172" data-name="Path 172" d="M987.049,357.712l30.879-30.879,5.342,50.826-25.042,14.458Z" transform="translate(-984.293 -321.541)" fill="#eff3fd"/>
      <path id="Path_173" data-name="Path 173" d="M1010.257,320.995l4.648,44.226-21.1,12.181-9.8-30.158,26.249-26.249m3.748-10.584-7.166,7.166L980.59,343.826,978.5,345.92l.915,2.817,9.8,30.158,1.845,5.677,5.169-2.985,21.1-12.181,2.719-1.57-.328-3.122-4.648-44.226-1.059-10.079Z" transform="translate(-978.496 -310.411)" fill="#eff3fd"/>
    </g>
    <g id="Group_123" data-name="Group 123" transform="translate(146.876 370.904)">
      <path id="Path_174" data-name="Path 174" d="M421.5,1084.7l28.758,3.022-11.179,34.405-43.132,6.831Z" transform="translate(-391.323 -1082.135)" fill="#eff3fd"/>
      <path id="Path_175" data-name="Path 175" d="M413.081,1081.87l24.229,2.547-9.8,30.158-36.664,5.807,22.235-38.512m-2.617-5.135-1.57,2.719-22.235,38.512-5.067,8.777,10.009-1.585,36.664-5.807,2.926-.464.915-2.817,9.8-30.158,1.845-5.677-5.936-.624-24.229-2.547-3.122-.328Z" transform="translate(-381.592 -1076.735)" fill="#eff3fd"/>
    </g>
    <g id="Group_124" data-name="Group 124" transform="translate(428.143 291.804)">
      <path id="Path_176" data-name="Path 176" d="M1266.311,861.308l29.267-21.263,38.91,19.826L1287.8,880.657Z" transform="translate(-1262.476 -837.219)" fill="#eff3fd"/>
      <path id="Path_177" data-name="Path 177" d="M1287.734,836.927l33.075,16.853-40.625,18.087-18.1-16.3,25.654-18.639m-.445-5.652-2.4,1.741-25.654,18.639-4.829,3.509,4.436,3.994,18.1,16.3,2.333,2.1,2.868-1.277,40.625-18.087,9.258-4.122-9.03-4.6-33.075-16.853-2.639-1.345Z" transform="translate(-1254.41 -831.275)" fill="#eff3fd"/>
    </g>
    <g id="Group_125" data-name="Group 125" transform="translate(152.932 189.656)">
      <path id="Path_178" data-name="Path 178" d="M434.03,563.811,414.2,524.9l49.989,10.626,6.012,28.284Z" transform="translate(-409.751 -521.483)" fill="#eff3fd"/>
      <path id="Path_179" data-name="Path 179" d="M409.292,521.131l43.5,9.246,5.065,23.83h-31.71l-16.853-33.075m-8.908-6.835,4.6,9.03L421.838,556.4l1.345,2.639h40.642l-1.241-5.839-5.065-23.83-.653-3.07-3.07-.653L410.3,516.4l-9.913-2.107Z" transform="translate(-400.384 -514.296)" fill="#eff3fd"/>
    </g>
    <g id="Group_126" data-name="Group 126" transform="translate(326.303 424.643)">
      <path id="Path_180" data-name="Path 180" d="M947.215,1281.425l11.761-26.417,29.267,21.264-6.832,43.132Z" transform="translate(-944.369 -1251.299)" fill="#eff3fd"/>
      <path id="Path_181" data-name="Path 181" d="M953.985,1250.917l25.654,18.639-5.807,36.664-29.756-33.047,9.909-22.256M952,1243.5l-2.428,5.453-9.909,22.256-1.277,2.868,2.1,2.333,29.756,33.047,6.781,7.531,1.585-10.009,5.807-36.664.463-2.926-2.4-1.741-25.654-18.639L952,1243.5Z" transform="translate(-938.383 -1243.497)" fill="#eff3fd"/>
    </g>
    <g id="Group_127" data-name="Group 127" transform="translate(170.804 224.733)">
      <path id="Path_182" data-name="Path 182" d="M468.084,630.645H505.7l5.633,26.5-26.169,7.012Z" transform="translate(-464.14 -628.228)" fill="#eff3fd"/>
      <path id="Path_183" data-name="Path 183" d="M495.444,627.978l4.749,22.342-22.063,5.912-14.4-28.254h31.71m3.914-4.834H455.845l3.581,7.028,14.4,28.254,1.777,3.488,3.781-1.013,22.063-5.912,4.431-1.187-.954-4.487-4.749-22.342-.814-3.829Z" transform="translate(-455.845 -623.145)" fill="#eff3fd"/>
    </g>
    <g id="Group_128" data-name="Group 128" transform="translate(316.134 151.791)">
      <path id="Path_184" data-name="Path 184" d="M916.424,437.347l26.595-26.6,11.623,35.771-23.463,13.546Z" transform="translate(-913.331 -406.254)" fill="#eff3fd"/>
      <path id="Path_185" data-name="Path 185" d="M935.434,405.79l9.8,30.158-19.781,11.421-12.44-19.156,22.422-22.423m2.16-9-5.578,5.578-22.422,22.423-2.768,2.768,2.132,3.283L921.4,450l2.5,3.847,3.973-2.294,19.781-11.421,3.39-1.957-1.21-3.723-9.8-30.158-2.438-7.5Z" transform="translate(-906.826 -396.794)" fill="#eff3fd"/>
    </g>
    <g id="Group_129" data-name="Group 129" transform="translate(412.196 276.975)">
      <path id="Path_186" data-name="Path 186" d="M1215.23,815.754l17.05-21.055,33.512,17.075-30.428,22.107Z" transform="translate(-1211.908 -791.658)" fill="#eff3fd"/>
      <path id="Path_187" data-name="Path 187" d="M1225.941,791.344l28.254,14.4-25.654,18.639L1211.566,809.1l14.375-17.751m-1.293-6.084-2.463,3.042-14.375,17.751-2.887,3.565,3.409,3.069,16.974,15.284,2.909,2.619,3.167-2.3,25.654-18.639,6.382-4.636-7.028-3.581-28.254-14.4-3.488-1.777Z" transform="translate(-1204.923 -785.26)" fill="#eff3fd"/>
    </g>
    <g id="Group_130" data-name="Group 130" transform="translate(185.759 373.369)">
      <path id="Path_188" data-name="Path 188" d="M524.79,1092.479l26.944,2.832-1.418,27.055-37.148,5.884Z" transform="translate(-509.65 -1089.871)" fill="#eff3fd"/>
      <path id="Path_189" data-name="Path 189" d="M519.086,1089.6l22.716,2.388-1.2,22.81-31.32,4.96,9.8-30.158m-3.388-5.216-1.21,3.723-9.8,30.158-2.438,7.5,7.791-1.234,31.32-4.961,3.866-.612.2-3.909,1.2-22.81.24-4.581-4.562-.479-22.716-2.388-3.893-.409Z" transform="translate(-502.253 -1084.386)" fill="#eff3fd"/>
    </g>
    <g id="Group_131" data-name="Group 131" transform="translate(335.897 405.039)">
      <path id="Path_190" data-name="Path 190" d="M977.475,1216.965l11.019-24.75,25.293,9.709-5.884,37.148Z" transform="translate(-974.471 -1189.137)" fill="#eff3fd"/>
      <path id="Path_191" data-name="Path 191" d="M983.452,1188.819l21.324,8.186-4.96,31.32-25.654-18.639,9.291-20.867m-2.55-6.157-1.866,4.191-9.29,20.867-1.592,3.576,3.167,2.3,25.654,18.639,6.381,4.636,1.234-7.791,4.961-31.32.612-3.866-3.654-1.4-21.324-8.186-4.282-1.644Z" transform="translate(-968.153 -1182.663)" fill="#eff3fd"/>
    </g>
    <g id="Group_132" data-name="Group 132" transform="translate(299.148 175.571)">
      <path id="Path_192" data-name="Path 192" d="M865.01,502.5l20.063-20.063,15.453,23.8-19.114,11.035Z" transform="translate(-861.5 -478.618)" fill="#eff3fd"/>
      <path id="Path_193" data-name="Path 193" d="M877.289,478.224l12.44,19.156-15.387,8.884-13.2-11.889,16.151-16.151m.8-7.639-4.221,4.221-16.151,16.151-3.6,3.6,3.785,3.408,13.2,11.889,2.61,2.35,3.042-1.756,15.388-8.884,4.411-2.547-2.774-4.272-12.44-19.156-3.251-5.006Z" transform="translate(-854.118 -470.585)" fill="#eff3fd"/>
    </g>
    <g id="Group_133" data-name="Group 133" transform="translate(399.791 266.07)">
      <path id="Path_194" data-name="Path 194" d="M1175.494,781.853l8.977-20.163,25.281,12.881-17.856,22.05Z" transform="translate(-1172.573 -758.38)" fill="#eff3fd"/>
      <path id="Path_195" data-name="Path 195" d="M1179.5,758.039l20.352,10.37-14.375,17.751-13.2-11.889,7.227-16.232m-2.344-6.619-2.072,4.653-7.227,16.232-1.429,3.208,2.61,2.35,13.2,11.889,3.785,3.408,3.206-3.959,14.375-17.751,3.757-4.639-5.319-2.71-20.352-10.37-4.538-2.313Z" transform="translate(-1166.427 -751.419)" fill="#eff3fd"/>
    </g>
    <g id="Group_134" data-name="Group 134" transform="translate(218.974 375.633)">
      <path id="Path_196" data-name="Path 196" d="M614.784,1099.7l21.95,2.307,4.589,21.589-28.024,4.438Z" transform="translate(-610.729 -1097.027)" fill="#eff3fd"/>
      <path id="Path_197" data-name="Path 197" d="M611.659,1096.752l17.671,1.857,3.694,17.38-22.56,3.573,1.2-22.81m-4.561-5.34-.267,5.087-1.2,22.81-.312,5.961,5.9-.934,22.56-3.573,5.031-.8-1.059-4.982-3.694-17.38-.73-3.435-3.493-.367-17.671-1.857-5.066-.532Z" transform="translate(-605.324 -1091.412)" fill="#eff3fd"/>
    </g>
    <g id="Group_135" data-name="Group 135" transform="translate(344.707 389.789)">
      <path id="Path_198" data-name="Path 198" d="M1005.561,1163.532l8.977-20.163,21.95,2.307-4.438,28.024Z" transform="translate(-1002.317 -1140.782)" fill="#eff3fd"/>
      <path id="Path_199" data-name="Path 199" d="M1009.209,1140.515l17.671,1.857-3.573,22.56-21.324-8.186,7.227-16.232m-2.987-5.174-1.428,3.208-7.227,16.232-2.072,4.653,4.755,1.825,21.324,8.186,5.573,2.139.934-5.9,3.573-22.56.8-5.031-5.066-.532-17.671-1.857-3.493-.367Z" transform="translate(-995.495 -1135.341)" fill="#eff3fd"/>
    </g>
    <g id="Group_136" data-name="Group 136" transform="translate(186.072 245.922)">
      <path id="Path_200" data-name="Path 200" d="M514.11,705.53l27.406-7.344,4.589,21.589L526.991,730.81Z" transform="translate(-510.601 -695.192)" fill="#eff3fd"/>
      <path id="Path_201" data-name="Path 201" d="M532.3,694.884,536,712.263l-15.387,8.884L510.239,700.8l22.063-5.912m3.669-5.987-4.92,1.318-22.063,5.912-5.766,1.545,2.71,5.319,10.37,20.352,2.313,4.539,4.411-2.547,15.388-8.884,3.041-1.756-.73-3.435-3.694-17.38-1.059-4.982Z" transform="translate(-503.222 -688.896)" fill="#eff3fd"/>
    </g>
    <g id="Group_137" data-name="Group 137" transform="translate(410.782 309.883)">
      <path id="Path_202" data-name="Path 202" d="M1210.7,912.939l21.917-15.925,22.325,20.1-32.215,14.343Z" transform="translate(-1207.427 -893.909)" fill="#eff3fd"/>
      <path id="Path_203" data-name="Path 203" d="M1225.568,893.589l18.1,16.3-26.93,11.99-9.654-14.865,18.479-13.426m.325-6.211-3.167,2.3L1204.247,903.1l-3.711,2.7,2.5,3.847,9.654,14.865,2.249,3.462,3.771-1.679,26.93-11.99,6.8-3.027-5.531-4.981L1228.8,890l-2.909-2.619Z" transform="translate(-1200.536 -887.378)" fill="#eff3fd"/>
    </g>
    <g id="Group_138" data-name="Group 138" transform="translate(170.456 344.518)">
      <path id="Path_204" data-name="Path 204" d="M467.035,1034.692l17.632-30.54,20.616,7.914-8.372,25.766Z" transform="translate(-463.081 -1001.157)" fill="#eff3fd"/>
      <path id="Path_205" data-name="Path 205" d="M477.413,1000.848l16.548,6.352-7.058,21.724-24.229-2.547,14.739-25.529m-2.122-5.992-2.064,3.575-14.739,25.529-3.722,6.446,7.4.778,24.229,2.547,3.893.409,1.21-3.723,7.058-21.723,1.417-4.363-4.282-1.644-16.548-6.352-3.854-1.48Z" transform="translate(-454.766 -994.856)" fill="#eff3fd"/>
    </g>
    <g id="Group_139" data-name="Group 139" transform="translate(305.916 412.03)">
      <path id="Path_206" data-name="Path 206" d="M884.979,1231.768l13.9-17.161,21.918,15.924-12.219,27.444Z" transform="translate(-881.802 -1211.303)" fill="#eff3fd"/>
      <path id="Path_207" data-name="Path 207" d="M892.628,1210.963l18.479,13.426-9.909,22.256-19.725-21.907,11.155-13.775m-.87-6.607-2.887,3.565L877.717,1221.7l-2.6,3.208,2.763,3.068,19.725,21.907,4.98,5.531,3.028-6.8,9.909-22.256,1.592-3.576-3.167-2.3-18.479-13.426-3.711-2.7Z" transform="translate(-875.119 -1204.356)" fill="#eff3fd"/>
    </g>
    <g id="Group_140" data-name="Group 140" transform="translate(348.734 170.856)">
      <path id="Path_208" data-name="Path 208" d="M1017,483.246l26.016-15.02L1046.7,503.3l-21.331,5.715Z" transform="translate(-1014.097 -464.272)" fill="#eff3fd"/>
      <path id="Path_209" data-name="Path 209" d="M1034.9,463.864l3.081,29.317-17.121,4.588-7.058-21.723,21.1-12.181m4.029-7.908-6.446,3.722-21.1,12.181-3.39,1.957,1.21,3.723,7.058,21.723,1.417,4.363,4.431-1.187,17.121-4.588,3.988-1.069-.432-4.106-3.081-29.317-.778-7.4Z" transform="translate(-1007.991 -455.956)" fill="#eff3fd"/>
    </g>
    <g id="Group_141" data-name="Group 141" transform="translate(199.062 199.462)">
      <path id="Path_210" data-name="Path 210" d="M559.516,583.844,553.27,554.46l34.494,7.332-1.156,22.053Z" transform="translate(-550.132 -551.322)" fill="#eff3fd"/>
      <path id="Path_211" data-name="Path 211" d="M549.808,551l28.834,6.129-.928,17.7H554.873L549.808,551m-6.276-6.276L545.08,552l5.065,23.83.814,3.829H582.3l.24-4.581.928-17.7.216-4.123-4.038-.858-28.834-6.129-7.281-1.548Z" transform="translate(-543.533 -544.723)" fill="#eff3fd"/>
    </g>
    <g id="Group_142" data-name="Group 142" transform="translate(316.463 399.057)">
      <path id="Path_212" data-name="Path 212" d="M918.651,1190.206l13.89-17.152,20.6,7.909-11.541,25.92Z" transform="translate(-915.17 -1170.169)" fill="#eff3fd"/>
      <path id="Path_213" data-name="Path 213" d="M925.993,1169.87l16.588,6.367-9.29,20.867-18.479-13.426,11.182-13.808m-1.546-5.771-2.21,2.729-11.182,13.808-3.206,3.959,4.121,2.994,18.479,13.426,4.829,3.509,2.428-5.453L947,1178.2l2.072-4.653-4.755-1.825-16.588-6.367-3.279-1.259Z" transform="translate(-907.849 -1164.099)" fill="#eff3fd"/>
    </g>
    <g id="Group_143" data-name="Group 143" transform="translate(196.151 350.524)">
      <path id="Path_214" data-name="Path 214" d="M544.5,1050.312l8.768-26.984,20.6,7.909-1.155,22.041Z" transform="translate(-541.274 -1020.159)" fill="#eff3fd"/>
      <path id="Path_215" data-name="Path 215" d="M548,1019.832l16.588,6.367-.93,17.744-22.716-2.388L548,1019.832m-3.023-6.338-1.574,4.844-7.058,21.724-1.845,5.677,5.937.624,22.716,2.387,5.066.533.267-5.087.93-17.744.184-3.507-3.279-1.259-16.588-6.367-4.755-1.825Z" transform="translate(-534.5 -1013.494)" fill="#eff3fd"/>
    </g>
    <g id="Group_144" data-name="Group 144" transform="translate(327.932 183.775)">
      <path id="Path_216" data-name="Path 216" d="M954.031,521.355,978.6,507.169l8.768,26.984-21.319,5.712Z" transform="translate(-950.617 -503.584)" fill="#eff3fd"/>
      <path id="Path_217" data-name="Path 217" d="M970.046,503.214l7.058,21.723-17.163,4.6-9.677-14.9,19.781-11.421m2.753-7.171-5.169,2.985-19.781,11.421L943.437,513l2.774,4.272,9.677,14.9,1.913,2.945,3.392-.909,17.163-4.6,4.92-1.318-1.574-4.844-7.058-21.723-1.845-5.677Z" transform="translate(-943.437 -496.043)" fill="#eff3fd"/>
    </g>
    <g id="Group_145" data-name="Group 145" transform="translate(204.433 224.733)">
      <path id="Path_218" data-name="Path 218" d="M569.464,630.645h28.373l-1.155,22.04L575.363,658.4Z" transform="translate(-566.479 -628.228)" fill="#eff3fd"/>
      <path id="Path_219" data-name="Path 219" d="M589.012,627.978l-.93,17.744-17.163,4.6-4.749-22.342h22.841m5.094-4.834H560.2l1.241,5.839,4.749,22.342,1.059,4.982,4.92-1.318,17.163-4.6,3.392-.909.184-3.507.93-17.744.266-5.087Z" transform="translate(-560.202 -623.145)" fill="#eff3fd"/>
    </g>
    <g id="Group_146" data-name="Group 146" transform="translate(401.691 293.81)">
      <path id="Path_220" data-name="Path 220" d="M1181.581,865.515l13.89-17.152,21.085,18.985L1193.6,884.025Z" transform="translate(-1178.598 -844.862)" fill="#eff3fd"/>
      <path id="Path_221" data-name="Path 221" d="M1189.472,844.5l16.974,15.284-18.479,13.426-9.677-14.9,11.182-13.808m-.551-7-3.206,3.958-11.182,13.808-2.21,2.729,1.913,2.945,9.677,14.9,2.774,4.272,4.121-2.994,18.479-13.426,4.829-3.509-4.436-3.994-16.974-15.284-3.785-3.408Z" transform="translate(-1172.323 -837.5)" fill="#eff3fd"/>
    </g>
    <g id="Group_147" data-name="Group 147" transform="translate(397.278 322.615)">
      <path id="Path_222" data-name="Path 222" d="M1167.446,950.575,1185.3,937.6l12.582,19.375-24.774,11.03Z" transform="translate(-1164.604 -934.15)" fill="#eff3fd"/>
      <path id="Path_223" data-name="Path 223" d="M1178.686,933.794l9.654,14.865-19.736,8.787-4.292-13.209,14.375-10.444m1.28-6.9-4.121,2.994-14.375,10.444-2.841,2.064,1.085,3.34,4.292,13.209,1.659,5.106,4.9-2.184,19.736-8.787,5.17-2.3-3.083-4.747-9.654-14.865-2.774-4.272Z" transform="translate(-1158.629 -926.889)" fill="#eff3fd"/>
    </g>
    <g id="Group_148" data-name="Group 148" transform="translate(228.15 205.961)">
      <path id="Path_224" data-name="Path 224" d="M641.7,597.125l1.209-23.07,26.526,5.638-5.664,17.432Z" transform="translate(-639.155 -571.102)" fill="#eff3fd"/>
      <path id="Path_225" data-name="Path 225" d="M639.82,570.8l21.132,4.492L656.661,588.5H638.893l.928-17.7m-4.531-5.9-.3,5.652-.928,17.7-.267,5.087h26.374l1.085-3.34,4.292-13.209,1.659-5.106-5.251-1.116-21.132-4.492-5.536-1.177Z" transform="translate(-633.799 -564.893)" fill="#eff3fd"/>
    </g>
    <g id="Group_149" data-name="Group 149" transform="translate(186.088 324.734)">
      <path id="Path_226" data-name="Path 226" d="M514.157,967.912l13.559-23.485L542.545,955.2l-6.82,20.99Z" transform="translate(-510.649 -940.894)" fill="#eff3fd"/>
      <path id="Path_227" data-name="Path 227" d="M521.09,940.53l11.236,8.164-5.491,16.9-16.548-6.352,10.8-18.71m-1.5-7.066-2.684,4.649-10.8,18.71-2.83,4.9,5.284,2.028L525.1,970.1l4.755,1.825,1.574-4.844,5.491-16.9,1.085-3.34-2.841-2.064-11.236-8.164-4.343-3.155Z" transform="translate(-503.271 -933.464)" fill="#eff3fd"/>
    </g>
    <g id="Group_150" data-name="Group 150" transform="translate(290.63 402.218)">
      <path id="Path_228" data-name="Path 228" d="M838.832,1193.952l14.828-10.773,17.856,12.973L856.978,1214.1Z" transform="translate(-835.24 -1180.191)" fill="#eff3fd"/>
      <path id="Path_229" data-name="Path 229" d="M846.106,1179.883l14.375,10.444L849.325,1204.1l-14.456-16.055,11.236-8.164m0-5.975-2.841,2.064-11.236,8.164-4.343,3.155,3.592,3.99,14.456,16.055,3.787,4.206,3.562-4.4,11.155-13.775,3.206-3.959-4.121-2.994-14.375-10.444-2.841-2.064Z" transform="translate(-827.685 -1173.908)" fill="#eff3fd"/>
    </g>
    <g id="Group_151" data-name="Group 151" transform="translate(355.428 201.947)">
      <path id="Path_230" data-name="Path 230" d="M1045.158,588.923l-6.82-20.991,22.315-5.979,2.835,26.97Z" transform="translate(-1035.252 -558.886)" fill="#eff3fd"/>
      <path id="Path_231" data-name="Path 231" d="M1052.055,558.57l2.258,21.486h-13.889l-5.49-16.9,17.121-4.588m4.216-6.134L1050.8,553.9l-17.121,4.588-4.92,1.318,1.574,4.844,5.491,16.9,1.085,3.34h22.769l-.561-5.339-2.258-21.486-.592-5.629Z" transform="translate(-1028.763 -552.436)" fill="#eff3fd"/>
    </g>
    <g id="Group_152" data-name="Group 152" transform="translate(192.299 192.699)">
      <path id="Path_232" data-name="Path 232" d="M646.3,749.224l-11.576,8.411L625.154,747l-16.723,7.446L600.2,738.284l-.24-.121L582.04,741l-3.756-17.67-.292-.261-17.963-1.888.942-17.982-.265-.406L543.9,696.341l5.565-17.129c-.052-.157-.1-.308-.148-.454l-11.337-8.237,7.067-12.24q-.014-.14-.028-.28l-12.133-13.475L545.8,631.607l.009-.057-8.294-16.279,15.853-9.153-3.806-17.906,17.682-4.738.958-18.28H586.51l4.422-13.609,14,2.975,9.153-15.853,16.31,8.311,12.944-12.944,13.6,12.249,15.853-9.153,9.97,15.352,17.682-4.738,5.657,17.41h14.309l1.5,14.231,17.906,3.806-2.864,18.08,16.31,8.311-7.445,16.723,13.6,12.249-11.52,14.226,9.97,15.353-14.81,10.76,4.422,13.608L734.4,698.36l1.914,18.205-18.08,2.864-2.864,18.08L697.169,735.6l-7.446,16.723-17.09-6.56-11.52,14.226Z" transform="translate(-529.553 -530.744)" fill="#eff3fd"/>
      <path id="Path_233" data-name="Path 233" d="M636.417,530.4l13.2,11.889,15.388-8.884,9.677,14.9,17.162-4.6,5.491,16.9h13.889l1.452,13.813,17.38,3.694-2.78,17.549,15.831,8.067-7.227,16.232,13.2,11.889-11.182,13.808,9.677,14.9L733.209,671l4.292,13.209-12.688,5.649,1.857,17.671-17.549,2.78-2.78,17.549-17.428-1.832-.345.2-7.125,16-16.087-6.175c-.279.078-.56.152-.841.227l-10.842,13.389L639.9,739.667c-.377,0-.752.014-1.13.014h-.086L628.063,747.4l-8.658-9.615c-.506-.1-1.01-.207-1.514-.315L602.538,744.3l-7.556-14.83c-.546-.271-1.091-.544-1.632-.824l-16.427,2.6-3.444-16.2q-.732-.645-1.453-1.3l-16.468-1.731.864-16.487q-.565-.85-1.115-1.71L539.9,687.9l5.1-15.7c-.215-.642-.426-1.286-.628-1.935l-10.22-7.425,6.372-11.037q-.1-.914-.185-1.832L529.21,637.607l11.849-11.849c.082-.535.174-1.066.265-1.6l-7.617-14.948,14.687-8.479q.264-.594.535-1.183l-3.529-16.6,16.66-4.464c.177-.217.351-.436.53-.652l.9-17.227h17.516c.11-.08.219-.161.33-.24l4.214-12.969,13.533,2.877.078-.034,8.858-15.342,15.831,8.066L636.417,530.4m-.174-6.662L633,526.982l-10.08,10.081-12.7-6.472-4.087-2.083-2.294,3.973-7.128,12.346-10.15-2.158-4.257-.9-1.345,4.139-3.206,9.869H558.906l-.24,4.581-.746,14.236-13.77,3.69-4.431,1.187.954,4.487,2.964,13.945-12.346,7.128-3.972,2.294,2.082,4.087,6.472,12.7-10.081,10.08-3.244,3.244,3.069,3.409,9.539,10.594-5.188,8.987-2.176,3.769,3.521,2.558,8.395,6.1L535.3,686.407l-1.417,4.362,4.282,1.644,13.309,5.109-.746,14.236-.24,4.581,4.562.479,14.178,1.49,2.964,13.944.954,4.487,4.531-.718,14.081-2.23,6.472,12.7,2.083,4.087,4.19-1.866,13.023-5.8,6.944,7.712,2.912,3.234,3.521-2.558,8.4-6.1,11.533,8.379,3.711,2.7,2.887-3.565,8.971-11.079,13.309,5.109,4.282,1.644,1.866-4.191,5.8-13.023,14.178,1.49,4.562.48.718-4.531,2.23-14.08,14.08-2.23,4.531-.718-.479-4.562-1.49-14.178,9.48-4.221,3.976-1.77-1.345-4.139-3.207-9.869,11.533-8.379,3.711-2.7-2.5-3.847-7.764-11.956,8.972-11.079,2.887-3.565-3.409-3.069-10.594-9.539,5.8-13.023,1.866-4.191-4.087-2.083-12.7-6.472,2.23-14.08.718-4.531-4.487-.954-13.944-2.964-1.085-10.32-.455-4.328H700.85l-4.405-13.558-1.418-4.363-4.431,1.187-13.77,3.69-7.764-11.956-2.5-3.847-3.973,2.294-12.346,7.128-10.594-9.539-3.409-3.069Z" transform="translate(-522.548 -523.738)" fill="#eff3fd"/>
    </g>
  </g>
</svg>
