<svg xmlns="http://www.w3.org/2000/svg" width="155.016" height="107.44" viewBox="0 0 155.016 107.44">
  <path id="_354b2a38bf3f4dc" data-name="354b2a38bf3f4dc" d="M114.982,83.469s-12.569,39.475-13.593,42.734C101.016,122.851,91.8,52,91.8,52,70.386,52,58.934,67.269,52.882,83.376c0,0-15.269,39.569-16.572,42.92-.093-3.072-2.328-42.455-2.328-42.455C32.679,64.1,14.617,52.093,0,52.093L17.689,159.44c22.438-.093,34.541-15.269,40.872-31.376,0,0,13.5-34.913,14.058-36.5.093,1.49,9.683,67.872,9.683,67.872,22.531,0,34.634-14.245,41.151-29.793l31.562-77.554C132.764,52.093,121.033,67.269,114.982,83.469Z" transform="translate(0 -52)" fill="#0e0a20"/>
</svg>
